<?xml version="1.0" standalone="no"?>
<!DOCTYPE svg PUBLIC "-//W3C//DTD SVG 20010904//EN"
 "http://www.w3.org/TR/2001/REC-SVG-20010904/DTD/svg10.dtd">
<svg version="1.0" xmlns="http://www.w3.org/2000/svg"
 width="512.000000pt" height="512.000000pt" viewBox="0 0 512.000000 512.000000"
 preserveAspectRatio="xMidYMid meet">
<metadata>
Created by potrace 1.16, written by Peter Selinger 2001-2019
</metadata>
<g transform="translate(0.000000,512.000000) scale(0.100000,-0.100000)" fill="#ffffff" stroke="none">
<path d="M630 3315 l0 -1205 400 -2 c220 -2 405 -1 410 0 7 3 10 279 10 798
l0 794 1015 0 1015 0 0 410 0 410 -1425 0 -1425 0 0 -1205z"/>
<path d="M2240 2515 l0 -405 1225 0 1226 0 -3 403 -3 402 -1222 3 -1223 2 0
-405z"/>
<path d="M630 925 l0 -405 1425 0 1425 0 0 405 0 405 -1425 0 -1425 0 0 -405z"/>
</g>
</svg>
